<svg id="Layer_1" data-name="Layer 1" xmlns="http://www.w3.org/2000/svg" viewBox="0 0 295.14 295.11"><path d="M397.11,298.74v98.37H102V102H397.11V287.23c-.66-4.43-1-8.94-2-13.3-7-30-24-52.46-52.09-65.37-30.59-14.06-60.68-11.77-89.39,5.89-2.87,1.76-4.65,1.88-7.48,0-30.52-20.19-72.9-19.85-102.64,1.51-30.9,22.19-44.62,52.59-39.67,90.49,3.55,27.22,17.28,49.06,40.22,63.84,33.86,21.82,68.63,21.7,103.08.61,2.15-1.32,3.49-1.3,5.53.07A89.48,89.48,0,0,0,297,386.08c20.9,1.39,40.35-3.47,57.86-15.09,19.35-12.82,32.39-30.47,38.64-52.85C395.26,311.83,395.93,305.21,397.11,298.74ZM249.8,123.5c-.92-1-1.76-1.86-2.63-2.73-11.9-11.94-28.06-11.26-38.57,1.61-7.63,9.35-7.7,24.45.5,34.67a128.12,128.12,0,0,0,35.73,30.71,9.16,9.16,0,0,0,10,.09c14-8.25,26.46-18.45,36.16-31.47,7.43-10,8-21.13,1.39-32-7.22-11.85-24.43-16.87-36.27-6.47C254.12,119.65,252.13,121.44,249.8,123.5Z" transform="translate(-102 -102)" fill="#fff"/><path d="M397.14,299.28c-1.17,6.47-1.85,13.09-3.61,19.4-6.26,22.38-19.3,40-38.64,52.85-17.52,11.62-37,16.48-57.87,15.09a89.44,89.44,0,0,1-44.34-15.11c-2.05-1.37-3.38-1.39-5.53-.07-34.46,21.09-69.22,21.21-103.08-.61-22.94-14.78-36.67-36.62-40.23-63.84-4.94-37.9,8.78-68.3,39.67-90.49,29.74-21.36,72.12-21.7,102.64-1.51,2.84,1.88,4.62,1.76,7.49,0,28.71-17.66,58.79-20,89.38-5.89,28.08,12.91,45.13,35.33,52.1,65.37,1,4.36,1.37,8.86,2,13.3ZM268,352.82c27.09,16.92,66,12.92,89.34-15.26a69.4,69.4,0,0,0-4.6-93.12c-25.57-25.4-63-24.7-84.61-10,13.94,17.22,21.13,37,21.14,59.09S282.09,335.39,268,352.82ZM231.31,234C204,217.05,165,221.66,142.21,249.8s-20.16,68.93,5.18,93.31c26.19,25.19,63.45,23.83,83.79,9.79C203.29,313.26,203.31,273.78,231.31,234ZM250,336.85c23.58-28.73,17.14-68.11-.34-86.46C227.8,277,230.88,314.9,250,336.85Z" transform="translate(-102 -102)" fill="#349696"/><path d="M249.84,124c2.32-2.06,4.31-3.85,6.33-5.62C268,108,285.22,113,292.44,124.89c6.65,10.9,6,22-1.4,32-9.69,13-22.14,23.22-36.16,31.47a9.16,9.16,0,0,1-10-.09,128,128,0,0,1-35.74-30.72c-8.19-10.21-8.13-25.31-.49-34.66,10.5-12.87,26.66-13.55,38.57-1.61C248.07,122.18,248.91,123.08,249.84,124Z" transform="translate(-102 -102)" fill="#044e5e"/></svg>